<svg xmlns="http://www.w3.org/2000/svg" xmlns:xlink="http://www.w3.org/1999/xlink" viewBox="0 0 605 99"><defs><style>.cls-1{fill:#fff;}.cls-2,.cls-3{fill:#003eff;}.cls-3{fill-rule:evenodd;}</style></defs><g id="Layer_2" data-name="Layer 2"><g id="Layer_3" data-name="Layer 3"><rect class="cls-1" width="605" height="99" rx="13.31"/><path class="cls-2" d="M194.9,42a3.52,3.52,0,0,0-1.49-2.61,5.85,5.85,0,0,0-3.44-.93,5.58,5.58,0,0,0-3.48,1,3,3,0,0,0-1.27,2.45,2.48,2.48,0,0,0,.66,1.8,4.69,4.69,0,0,0,1.69,1.13,14.63,14.63,0,0,0,2.1.67l2.46.62a15.92,15.92,0,0,1,3.72,1.36,8.11,8.11,0,0,1,2.87,2.4,6.25,6.25,0,0,1,1.1,3.78,7,7,0,0,1-2.62,5.61c-1.74,1.42-4.17,2.14-7.31,2.14a11.6,11.6,0,0,1-7.3-2.12,7.5,7.5,0,0,1-2.86-6h4.66a3.75,3.75,0,0,0,1.69,3.06,6.7,6.7,0,0,0,3.77,1,6.39,6.39,0,0,0,3.77-1,3.21,3.21,0,0,0,1.46-2.71,2.58,2.58,0,0,0-1.3-2.31,12.56,12.56,0,0,0-3.4-1.32l-3-.77a11.84,11.84,0,0,1-5.11-2.52,5.78,5.78,0,0,1-1.87-4.51,6.72,6.72,0,0,1,1.25-4,8.16,8.16,0,0,1,3.43-2.7,12,12,0,0,1,4.93-1,11.58,11.58,0,0,1,4.9,1,8,8,0,0,1,3.3,2.67A6.81,6.81,0,0,1,199.46,42Z"/><path class="cls-2" d="M206.16,38.51a2.66,2.66,0,0,1-1.89-.74,2.39,2.39,0,0,1,0-3.55,2.78,2.78,0,0,1,3.78,0,2.39,2.39,0,0,1,0,3.55A2.68,2.68,0,0,1,206.16,38.51Zm-2.32,22.42V41.29h4.62V60.93Z"/><path class="cls-2" d="M221.76,68.63a10.45,10.45,0,0,1-5.89-1.44,6.65,6.65,0,0,1-2.78-3.45l4.17-1a4.69,4.69,0,0,0,4.58,2.39,5.34,5.34,0,0,0,3.26-.94,3.54,3.54,0,0,0,1.29-3.06V57.4h-.23a6.77,6.77,0,0,1-1,1.47,5.38,5.38,0,0,1-1.81,1.27,6.74,6.74,0,0,1-2.8.51,8,8,0,0,1-4.1-1.07,7.51,7.51,0,0,1-2.91-3.2,11.6,11.6,0,0,1-1.09-5.33,12.35,12.35,0,0,1,1.09-5.47,8,8,0,0,1,2.92-3.38,7.45,7.45,0,0,1,4.1-1.16,6.17,6.17,0,0,1,2.86.58A5.61,5.61,0,0,1,225.15,43a8.18,8.18,0,0,1,1,1.53h.25V41.29H231v20a6.78,6.78,0,0,1-1.2,4.11,7.22,7.22,0,0,1-3.28,2.45A12.8,12.8,0,0,1,221.76,68.63Zm0-11.61a4,4,0,0,0,3.41-1.59,7.18,7.18,0,0,0,1.2-4.41,7.61,7.61,0,0,0-1.19-4.48,4.32,4.32,0,0,0-6.91.05A7.78,7.78,0,0,0,217.13,51a7.31,7.31,0,0,0,1.19,4.36A4,4,0,0,0,221.8,57Z"/><path class="cls-2" d="M240.36,49.43v11.5h-4.63V41.29h4.43v3.34h.23A5.62,5.62,0,0,1,242.55,42a6.63,6.63,0,0,1,3.69-1A6.44,6.44,0,0,1,251.13,43,7.6,7.6,0,0,1,253,48.43v12.5h-4.63V49.14a4.39,4.39,0,0,0-1-3.08,3.61,3.61,0,0,0-2.8-1.11,4.06,4.06,0,0,0-3,1.17A4.51,4.51,0,0,0,240.36,49.43Z"/><path class="cls-2" d="M269,38.51a2.67,2.67,0,0,1-1.9-.74,2.39,2.39,0,0,1,0-3.55,2.78,2.78,0,0,1,3.78,0,2.39,2.39,0,0,1,0,3.55A2.65,2.65,0,0,1,269,38.51Zm-2.33,22.42V41.29h4.63V60.93Z"/><path class="cls-2" d="M280.63,49.43v11.5H276V41.29h4.43v3.34h.23A5.62,5.62,0,0,1,282.82,42a6.59,6.59,0,0,1,3.69-1A6.44,6.44,0,0,1,291.4,43a7.55,7.55,0,0,1,1.83,5.46v12.5h-4.62V49.14a4.39,4.39,0,0,0-1-3.08A3.62,3.62,0,0,0,284.78,45a4.05,4.05,0,0,0-3,1.17A4.51,4.51,0,0,0,280.63,49.43Z"/><path class="cls-2" d="M310.94,60.93l-5.55-19.64h4.72l3.45,13.81h.18l3.53-13.81h4.67L325.46,55h.2l3.4-13.73h4.73l-5.57,19.64h-4.81l-3.69-13.27h-.26l-3.69,13.27Z"/><path class="cls-2" d="M339.36,38.51a2.7,2.7,0,0,1-1.9-.74,2.39,2.39,0,0,1,0-3.55,2.8,2.8,0,0,1,3.79,0,2.41,2.41,0,0,1,0,3.55A2.69,2.69,0,0,1,339.36,38.51ZM337,60.93V41.29h4.63V60.93Z"/><path class="cls-2" d="M356.22,41.29v3.58h-3.87V55a2.17,2.17,0,0,0,.61,1.84,2.52,2.52,0,0,0,1.49.44,4.79,4.79,0,0,0,.79-.06c.25-.05.43-.08.56-.12l.78,3.62c-.25.08-.6.18-1.05.28a9.37,9.37,0,0,1-1.67.18,6.68,6.68,0,0,1-4.38-1.28,4.84,4.84,0,0,1-1.76-4.13V44.87h-2.79V41.29h2.79v-4.7h4.63v4.7Z"/><path class="cls-2" d="M365.13,49.43v11.5H360.5V34.75H365v9.88h.23A5.54,5.54,0,0,1,367.39,42a6.6,6.6,0,0,1,3.71-1A6.5,6.5,0,0,1,376,43a7.53,7.53,0,0,1,1.85,5.47v12.5h-4.62V49.14a4.35,4.35,0,0,0-1-3.08A3.67,3.67,0,0,0,369.38,45a4.16,4.16,0,0,0-3.05,1.17A4.41,4.41,0,0,0,365.13,49.43Z"/><path class="cls-2" d="M405.94,42a3.5,3.5,0,0,0-1.5-2.61,5.83,5.83,0,0,0-3.44-.93,5.57,5.57,0,0,0-3.47,1,3,3,0,0,0-1.27,2.45,2.51,2.51,0,0,0,.65,1.8,4.82,4.82,0,0,0,1.7,1.13,13.87,13.87,0,0,0,2.1.67l2.45.62a15.83,15.83,0,0,1,3.73,1.36,8,8,0,0,1,2.86,2.4,6.18,6.18,0,0,1,1.11,3.78,7,7,0,0,1-2.62,5.61c-1.74,1.42-4.18,2.14-7.31,2.14a11.58,11.58,0,0,1-7.3-2.12,7.54,7.54,0,0,1-2.87-6h4.67a3.72,3.72,0,0,0,1.69,3.06,6.7,6.7,0,0,0,3.77,1,6.39,6.39,0,0,0,3.77-1,3.23,3.23,0,0,0,1.46-2.71,2.58,2.58,0,0,0-1.3-2.31,12.64,12.64,0,0,0-3.41-1.32l-3-.77a11.85,11.85,0,0,1-5.1-2.52,5.78,5.78,0,0,1-1.88-4.51,6.72,6.72,0,0,1,1.26-4,8.16,8.16,0,0,1,3.43-2.7,11.92,11.92,0,0,1,4.93-1,11.54,11.54,0,0,1,4.89,1A8,8,0,0,1,409.27,38,6.81,6.81,0,0,1,410.5,42Z"/><path class="cls-2" d="M423.44,61.31a9.49,9.49,0,0,1-5-1.29,8.58,8.58,0,0,1-3.24-3.58A11.72,11.72,0,0,1,414,51.19a11.57,11.57,0,0,1,1.15-5.29,8.71,8.71,0,0,1,3.25-3.57,9.38,9.38,0,0,1,5-1.29,9.84,9.84,0,0,1,4.25.87,7.18,7.18,0,0,1,4.19,6.19h-4.42a4.3,4.3,0,0,0-1.27-2.38,3.77,3.77,0,0,0-2.68-.95A4.17,4.17,0,0,0,420,46.45a7.44,7.44,0,0,0-1.31,4.66,7.61,7.61,0,0,0,1.3,4.72,4.12,4.12,0,0,0,3.46,1.71,4,4,0,0,0,2.59-.87,4,4,0,0,0,1.36-2.45h4.42a7.57,7.57,0,0,1-1.23,3.68,7.22,7.22,0,0,1-2.89,2.51A9.58,9.58,0,0,1,423.44,61.31Z"/><path class="cls-2" d="M444.23,61.31a9.56,9.56,0,0,1-5-1.26A8.51,8.51,0,0,1,436,56.5a11.6,11.6,0,0,1-1.15-5.31A11.61,11.61,0,0,1,436,45.87a8.54,8.54,0,0,1,3.27-3.56,10.44,10.44,0,0,1,10,0,8.45,8.45,0,0,1,3.26,3.56,11.61,11.61,0,0,1,1.15,5.32,11.6,11.6,0,0,1-1.15,5.31,8.42,8.42,0,0,1-3.26,3.55A9.59,9.59,0,0,1,444.23,61.31Zm0-3.7a4,4,0,0,0,2.62-.86,5.09,5.09,0,0,0,1.55-2.32,10.48,10.48,0,0,0,0-6.52,5.18,5.18,0,0,0-1.55-2.33,4.41,4.41,0,0,0-5.26,0A5.23,5.23,0,0,0,440,47.91a10.48,10.48,0,0,0,0,6.52,5.14,5.14,0,0,0,1.58,2.32A4,4,0,0,0,444.25,57.61Z"/><path class="cls-2" d="M470.06,52.67V41.29h4.63V60.93H470.2V57.44H470a6,6,0,0,1-2.18,2.7,6.38,6.38,0,0,1-3.73,1,6.21,6.21,0,0,1-4.72-1.93,7.64,7.64,0,0,1-1.82-5.46V41.29h4.62V53.08a4.16,4.16,0,0,0,1,3,3.49,3.49,0,0,0,2.68,1.1,4.28,4.28,0,0,0,2-.5,4,4,0,0,0,1.58-1.49A4.64,4.64,0,0,0,470.06,52.67Z"/><path class="cls-2" d="M489.25,41.29v3.58h-3.87V55a2.17,2.17,0,0,0,.61,1.84,2.49,2.49,0,0,0,1.48.44,4.92,4.92,0,0,0,.8-.06c.25-.05.43-.08.56-.12l.78,3.62c-.25.08-.6.18-1.06.28a9.14,9.14,0,0,1-1.66.18,6.68,6.68,0,0,1-4.38-1.28,4.84,4.84,0,0,1-1.76-4.13V44.87H478V41.29h2.79v-4.7h4.63v4.7Z"/><image width="1000" height="1000" transform="translate(114.25 24.34) scale(0.05)" xlink:href="../../logo_white.png"/><path class="cls-3" d="M116.5,67s25.05-54,45-31.69C161.5,35.34,154.4,31,116.5,67Z"/></g></g></svg>