<svg xmlns="http://www.w3.org/2000/svg" xmlns:xlink="http://www.w3.org/1999/xlink" viewBox="0 0 605 99"><defs><style>.cls-1{fill:#003eff;}.cls-2{fill:#fff;}</style></defs><g id="Layer_2" data-name="Layer 2"><g id="sign_in_2" data-name="sign in 2"><rect class="cls-1" width="605" height="99" rx="13.31"/><path class="cls-2" d="M195.4,42a3.52,3.52,0,0,0-1.49-2.61,5.85,5.85,0,0,0-3.44-.93,5.58,5.58,0,0,0-3.48,1,3,3,0,0,0-1.27,2.45,2.48,2.48,0,0,0,.66,1.8,4.69,4.69,0,0,0,1.69,1.13,14.63,14.63,0,0,0,2.1.67l2.46.62a15.92,15.92,0,0,1,3.72,1.36,8.11,8.11,0,0,1,2.87,2.4,6.25,6.25,0,0,1,1.1,3.78,7,7,0,0,1-2.62,5.61c-1.74,1.42-4.17,2.14-7.31,2.14a11.6,11.6,0,0,1-7.3-2.12,7.5,7.5,0,0,1-2.86-6h4.66a3.78,3.78,0,0,0,1.69,3.07,6.77,6.77,0,0,0,3.77,1,6.39,6.39,0,0,0,3.77-1,3.21,3.21,0,0,0,1.46-2.71,2.58,2.58,0,0,0-1.3-2.31,12.56,12.56,0,0,0-3.4-1.32l-3-.77a11.84,11.84,0,0,1-5.11-2.52,5.78,5.78,0,0,1-1.87-4.51,6.72,6.72,0,0,1,1.25-4,8.16,8.16,0,0,1,3.43-2.7,12,12,0,0,1,4.93-1,11.58,11.58,0,0,1,4.9,1,8,8,0,0,1,3.3,2.67A6.81,6.81,0,0,1,200,42Z"/><path class="cls-2" d="M206.66,38.51a2.66,2.66,0,0,1-1.89-.74,2.39,2.39,0,0,1,0-3.55,2.78,2.78,0,0,1,3.78,0,2.39,2.39,0,0,1,0,3.55A2.68,2.68,0,0,1,206.66,38.51Zm-2.32,22.42V41.29H209V60.93Z"/><path class="cls-2" d="M222.26,68.63a10.45,10.45,0,0,1-5.89-1.44,6.65,6.65,0,0,1-2.78-3.45l4.17-1a4.69,4.69,0,0,0,4.58,2.39,5.34,5.34,0,0,0,3.26-.94,3.54,3.54,0,0,0,1.29-3.06V57.4h-.23a6.77,6.77,0,0,1-1,1.47,5.38,5.38,0,0,1-1.81,1.27,6.74,6.74,0,0,1-2.8.51,8,8,0,0,1-4.1-1.07,7.51,7.51,0,0,1-2.91-3.2,11.6,11.6,0,0,1-1.09-5.33A12.35,12.35,0,0,1,214,45.58a8,8,0,0,1,2.92-3.38A7.45,7.45,0,0,1,221,41a6.17,6.17,0,0,1,2.86.58A5.61,5.61,0,0,1,225.65,43a8.18,8.18,0,0,1,1,1.53h.25V41.29h4.57v20a6.76,6.76,0,0,1-1.2,4.11A7.22,7.22,0,0,1,227,67.81,12.8,12.8,0,0,1,222.26,68.63Zm0-11.61a4,4,0,0,0,3.41-1.59,7.18,7.18,0,0,0,1.2-4.41,7.61,7.61,0,0,0-1.19-4.48,4.32,4.32,0,0,0-6.91.05A7.78,7.78,0,0,0,217.63,51a7.31,7.31,0,0,0,1.19,4.36A4,4,0,0,0,222.3,57Z"/><path class="cls-2" d="M240.86,49.43v11.5h-4.63V41.29h4.43v3.34h.23A5.62,5.62,0,0,1,243.05,42a6.63,6.63,0,0,1,3.69-1A6.44,6.44,0,0,1,251.63,43a7.6,7.6,0,0,1,1.84,5.46v12.5h-4.63V49.14a4.39,4.39,0,0,0-1-3.08A3.61,3.61,0,0,0,245,45a4.06,4.06,0,0,0-3,1.17A4.51,4.51,0,0,0,240.86,49.43Z"/><path class="cls-2" d="M269.45,38.51a2.67,2.67,0,0,1-1.9-.74,2.39,2.39,0,0,1,0-3.55,2.78,2.78,0,0,1,3.78,0,2.39,2.39,0,0,1,0,3.55A2.65,2.65,0,0,1,269.45,38.51Zm-2.33,22.42V41.29h4.63V60.93Z"/><path class="cls-2" d="M281.13,49.43v11.5H276.5V41.29h4.43v3.34h.23A5.62,5.62,0,0,1,283.32,42,6.59,6.59,0,0,1,287,41,6.44,6.44,0,0,1,291.9,43a7.55,7.55,0,0,1,1.83,5.46v12.5h-4.62V49.14a4.39,4.39,0,0,0-1-3.08A3.62,3.62,0,0,0,285.28,45a4.05,4.05,0,0,0-3,1.17A4.51,4.51,0,0,0,281.13,49.43Z"/><path class="cls-2" d="M311.44,60.93l-5.55-19.64h4.72l3.45,13.81h.18l3.53-13.81h4.67L326,55h.2l3.4-13.73h4.73l-5.57,19.64h-4.81l-3.69-13.27H320l-3.69,13.27Z"/><path class="cls-2" d="M339.86,38.51a2.7,2.7,0,0,1-1.9-.74,2.39,2.39,0,0,1,0-3.55,2.8,2.8,0,0,1,3.79,0,2.41,2.41,0,0,1,0,3.55A2.69,2.69,0,0,1,339.86,38.51Zm-2.33,22.42V41.29h4.63V60.93Z"/><path class="cls-2" d="M356.72,41.29v3.58h-3.87V55a2.17,2.17,0,0,0,.61,1.84,2.52,2.52,0,0,0,1.49.44,4.79,4.79,0,0,0,.79-.06c.25-.05.43-.08.56-.12l.78,3.62c-.25.08-.6.18-1.05.28a9.37,9.37,0,0,1-1.67.18A6.68,6.68,0,0,1,350,59.92a4.84,4.84,0,0,1-1.76-4.13V44.87h-2.79V41.29h2.79v-4.7h4.63v4.7Z"/><path class="cls-2" d="M365.63,49.43v11.5H361V34.75h4.53v9.88h.23A5.59,5.59,0,0,1,367.89,42a6.6,6.6,0,0,1,3.71-1A6.5,6.5,0,0,1,376.51,43a7.53,7.53,0,0,1,1.85,5.47v12.5h-4.62V49.14a4.35,4.35,0,0,0-1-3.08A3.67,3.67,0,0,0,369.88,45a4.16,4.16,0,0,0-3.05,1.17A4.41,4.41,0,0,0,365.63,49.43Z"/><path class="cls-2" d="M406.44,42a3.5,3.5,0,0,0-1.5-2.61,5.83,5.83,0,0,0-3.44-.93,5.57,5.57,0,0,0-3.47,1,3,3,0,0,0-1.27,2.45,2.51,2.51,0,0,0,.65,1.8,4.82,4.82,0,0,0,1.7,1.13,13.87,13.87,0,0,0,2.1.67l2.45.62a15.83,15.83,0,0,1,3.73,1.36,8,8,0,0,1,2.86,2.4,6.18,6.18,0,0,1,1.11,3.78,7,7,0,0,1-2.62,5.61c-1.74,1.42-4.18,2.14-7.31,2.14a11.58,11.58,0,0,1-7.3-2.12,7.54,7.54,0,0,1-2.87-6h4.67a3.75,3.75,0,0,0,1.69,3.07,6.77,6.77,0,0,0,3.77,1,6.39,6.39,0,0,0,3.77-1,3.23,3.23,0,0,0,1.46-2.71,2.58,2.58,0,0,0-1.3-2.31,12.64,12.64,0,0,0-3.41-1.32l-3-.77a11.85,11.85,0,0,1-5.1-2.52A5.78,5.78,0,0,1,392,42.11a6.72,6.72,0,0,1,1.26-4,8.16,8.16,0,0,1,3.43-2.7,11.92,11.92,0,0,1,4.93-1,11.54,11.54,0,0,1,4.89,1A8,8,0,0,1,409.77,38,6.81,6.81,0,0,1,411,42Z"/><path class="cls-2" d="M423.94,61.31a9.49,9.49,0,0,1-5-1.29,8.58,8.58,0,0,1-3.24-3.58,11.72,11.72,0,0,1-1.13-5.25,11.57,11.57,0,0,1,1.15-5.29,8.71,8.71,0,0,1,3.25-3.57,9.38,9.38,0,0,1,5-1.29,9.69,9.69,0,0,1,4.25.88,7.14,7.14,0,0,1,4.19,6.18h-4.42a4.3,4.3,0,0,0-1.27-2.38,3.77,3.77,0,0,0-2.68-.95,4.17,4.17,0,0,0-3.45,1.68,7.44,7.44,0,0,0-1.31,4.66,7.61,7.61,0,0,0,1.3,4.72A4.12,4.12,0,0,0,424,57.54a3.83,3.83,0,0,0,3.95-3.32h4.42a7.57,7.57,0,0,1-1.23,3.68,7.22,7.22,0,0,1-2.89,2.51A9.58,9.58,0,0,1,423.94,61.31Z"/><path class="cls-2" d="M444.73,61.31a9.56,9.56,0,0,1-5-1.26,8.51,8.51,0,0,1-3.27-3.55,11.6,11.6,0,0,1-1.15-5.31,11.61,11.61,0,0,1,1.15-5.32,8.54,8.54,0,0,1,3.27-3.56,10.44,10.44,0,0,1,10,0A8.45,8.45,0,0,1,453,45.87a11.61,11.61,0,0,1,1.15,5.32A11.6,11.6,0,0,1,453,56.5a8.42,8.42,0,0,1-3.26,3.55A9.59,9.59,0,0,1,444.73,61.31Zm0-3.7a4,4,0,0,0,2.62-.86,5.09,5.09,0,0,0,1.55-2.32,10.48,10.48,0,0,0,0-6.52,5.18,5.18,0,0,0-1.55-2.33,4.41,4.41,0,0,0-5.26,0,5.23,5.23,0,0,0-1.58,2.33,10.48,10.48,0,0,0,0,6.52,5.14,5.14,0,0,0,1.58,2.32A4,4,0,0,0,444.75,57.61Z"/><path class="cls-2" d="M470.56,52.67V41.29h4.63V60.93H470.7V57.44h-.2a6,6,0,0,1-2.18,2.7,6.38,6.38,0,0,1-3.73,1,6.21,6.21,0,0,1-4.72-1.93,7.64,7.64,0,0,1-1.82-5.46V41.29h4.62V53.08a4.16,4.16,0,0,0,1,3,3.49,3.49,0,0,0,2.68,1.1,4.28,4.28,0,0,0,2-.5,4,4,0,0,0,1.58-1.49A4.64,4.64,0,0,0,470.56,52.67Z"/><path class="cls-2" d="M489.75,41.29v3.58h-3.87V55a2.17,2.17,0,0,0,.61,1.84,2.49,2.49,0,0,0,1.48.44,4.92,4.92,0,0,0,.8-.06c.25-.05.43-.08.56-.12l.78,3.62c-.25.08-.6.18-1.06.28a9.14,9.14,0,0,1-1.66.18A6.68,6.68,0,0,1,483,59.92a4.84,4.84,0,0,1-1.76-4.13V44.87h-2.79V41.29h2.79v-4.7h4.63v4.7Z"/><image width="1000" height="1000" transform="translate(114.75 24.34) scale(0.05)" xlink:href="../../logo_white.png"/></g></g></svg>