<svg xmlns="http://www.w3.org/2000/svg" viewBox="0 0 605 99"><defs><style>.cls-1{fill:#003eff;}.cls-2{fill:#fff;}</style></defs><g id="Layer_2" data-name="Layer 2"><g id="sign_in_with_scout" data-name="sign in with scout"><rect class="cls-1" width="605" height="99" rx="13.31"/><path class="cls-2" d="M162,42a3.5,3.5,0,0,0-1.5-2.61,5.81,5.81,0,0,0-3.44-.93,5.57,5.57,0,0,0-3.47,1,3,3,0,0,0-1.27,2.45,2.51,2.51,0,0,0,.65,1.8,4.82,4.82,0,0,0,1.7,1.13,13.87,13.87,0,0,0,2.1.67l2.46.62A15.92,15.92,0,0,1,163,47.4a8.11,8.11,0,0,1,2.87,2.4,6.25,6.25,0,0,1,1.1,3.78,7,7,0,0,1-2.62,5.61c-1.74,1.42-4.18,2.14-7.31,2.14a11.58,11.58,0,0,1-7.3-2.12,7.54,7.54,0,0,1-2.87-6h4.67a3.75,3.75,0,0,0,1.69,3.07,6.78,6.78,0,0,0,3.77,1,6.39,6.39,0,0,0,3.77-1,3.23,3.23,0,0,0,1.46-2.71,2.58,2.58,0,0,0-1.3-2.31,12.64,12.64,0,0,0-3.41-1.32l-3-.77a11.85,11.85,0,0,1-5.1-2.52,5.78,5.78,0,0,1-1.88-4.51,6.72,6.72,0,0,1,1.26-4,8.16,8.16,0,0,1,3.43-2.7,12,12,0,0,1,4.93-1,11.5,11.5,0,0,1,4.89,1A8,8,0,0,1,165.34,38,6.81,6.81,0,0,1,166.57,42Z"/><path class="cls-2" d="M173.27,38.51a2.7,2.7,0,0,1-1.9-.74,2.41,2.41,0,0,1,0-3.55,2.8,2.8,0,0,1,3.79,0,2.41,2.41,0,0,1,0,3.55A2.69,2.69,0,0,1,173.27,38.51ZM171,60.93V41.29h4.62V60.93Z"/><path class="cls-2" d="M188.87,68.63A10.45,10.45,0,0,1,183,67.19a6.61,6.61,0,0,1-2.78-3.45l4.17-1a4.69,4.69,0,0,0,4.57,2.39,5.37,5.37,0,0,0,3.27-.94,3.54,3.54,0,0,0,1.29-3.06V57.4h-.23a6.51,6.51,0,0,1-1.05,1.47,5.23,5.23,0,0,1-1.8,1.27,6.74,6.74,0,0,1-2.8.51,8,8,0,0,1-4.1-1.07,7.47,7.47,0,0,1-2.92-3.2,11.74,11.74,0,0,1-1.08-5.33,12.49,12.49,0,0,1,1.08-5.47,8,8,0,0,1,2.92-3.38A7.51,7.51,0,0,1,187.63,41a6.17,6.17,0,0,1,2.86.58A5.61,5.61,0,0,1,192.26,43a8.18,8.18,0,0,1,1,1.53h.25V41.29h4.57v20a6.7,6.7,0,0,1-1.21,4.11,7.2,7.2,0,0,1-3.28,2.46A12.92,12.92,0,0,1,188.87,68.63Zm0-11.61a4,4,0,0,0,3.41-1.59,7.18,7.18,0,0,0,1.2-4.41,7.61,7.61,0,0,0-1.19-4.48,4.32,4.32,0,0,0-6.91.05A7.78,7.78,0,0,0,184.24,51a7.31,7.31,0,0,0,1.19,4.36A4,4,0,0,0,188.91,57Z"/><path class="cls-2" d="M207.47,49.43v11.5h-4.63V41.29h4.42v3.34h.23A5.7,5.7,0,0,1,209.66,42a6.59,6.59,0,0,1,3.69-1A6.44,6.44,0,0,1,218.24,43a7.55,7.55,0,0,1,1.83,5.46v12.5h-4.62V49.14a4.39,4.39,0,0,0-1-3.08A3.62,3.62,0,0,0,211.62,45a4,4,0,0,0-3,1.17A4.51,4.51,0,0,0,207.47,49.43Z"/><path class="cls-2" d="M236.05,38.51a2.66,2.66,0,0,1-1.89-.74,2.39,2.39,0,0,1,0-3.55,2.78,2.78,0,0,1,3.78,0,2.39,2.39,0,0,1,0,3.55A2.66,2.66,0,0,1,236.05,38.51Zm-2.32,22.42V41.29h4.62V60.93Z"/><path class="cls-2" d="M247.74,49.43v11.5h-4.63V41.29h4.42v3.34h.23A5.7,5.7,0,0,1,249.93,42a6.59,6.59,0,0,1,3.69-1A6.44,6.44,0,0,1,258.51,43a7.55,7.55,0,0,1,1.83,5.46v12.5h-4.62V49.14a4.39,4.39,0,0,0-1-3.08A3.62,3.62,0,0,0,251.89,45a4,4,0,0,0-3,1.17A4.51,4.51,0,0,0,247.74,49.43Z"/><path class="cls-2" d="M278.05,60.93,272.5,41.29h4.72l3.45,13.81h.18l3.53-13.81H289L292.57,55h.19l3.4-13.74h4.73l-5.56,19.64h-4.82l-3.68-13.27h-.27l-3.68,13.27Z"/><path class="cls-2" d="M306.47,38.51a2.68,2.68,0,0,1-1.9-.74,2.39,2.39,0,0,1,0-3.55,2.68,2.68,0,0,1,1.9-.74,2.65,2.65,0,0,1,1.88.74,2.39,2.39,0,0,1,0,3.55A2.65,2.65,0,0,1,306.47,38.51Zm-2.33,22.42V41.29h4.63V60.93Z"/><path class="cls-2" d="M323.33,41.29v3.58h-3.87V55a2.16,2.16,0,0,0,.61,1.83,2.49,2.49,0,0,0,1.48.44,4.92,4.92,0,0,0,.8-.06c.24-.05.43-.08.56-.12l.78,3.62a8.94,8.94,0,0,1-1.06.28,9.16,9.16,0,0,1-1.67.18,6.62,6.62,0,0,1-4.37-1.28,4.84,4.84,0,0,1-1.76-4.13V44.87H312V41.29h2.79v-4.7h4.63v4.7Z"/><path class="cls-2" d="M332.24,49.43v11.5h-4.63V34.75h4.53v9.88h.23A5.59,5.59,0,0,1,334.5,42a7.4,7.4,0,0,1,8.62,1A7.58,7.58,0,0,1,345,48.43v12.5h-4.63V49.14a4.35,4.35,0,0,0-1-3.08A3.68,3.68,0,0,0,336.48,45a4.19,4.19,0,0,0-3.05,1.17A4.44,4.44,0,0,0,332.24,49.43Z"/><path class="cls-2" d="M373.05,42a3.5,3.5,0,0,0-1.5-2.61,5.83,5.83,0,0,0-3.44-.93,5.62,5.62,0,0,0-3.48,1,3,3,0,0,0-1.26,2.45,2.51,2.51,0,0,0,.65,1.8,4.78,4.78,0,0,0,1.69,1.13,14.36,14.36,0,0,0,2.11.67l2.45.62A16,16,0,0,1,374,47.4a8.08,8.08,0,0,1,2.86,2.4A6.18,6.18,0,0,1,378,53.58a7,7,0,0,1-2.62,5.61c-1.74,1.42-4.18,2.14-7.32,2.14a11.6,11.6,0,0,1-7.3-2.12,7.53,7.53,0,0,1-2.86-6h4.67a3.75,3.75,0,0,0,1.68,3.07,6.81,6.81,0,0,0,3.78,1,6.41,6.41,0,0,0,3.77-1,3.2,3.2,0,0,0,1.45-2.71,2.57,2.57,0,0,0-1.29-2.31,12.77,12.77,0,0,0-3.41-1.32l-3-.77a11.84,11.84,0,0,1-5.11-2.52,5.81,5.81,0,0,1-1.87-4.51,6.78,6.78,0,0,1,1.25-4,8.19,8.19,0,0,1,3.44-2.7,11.9,11.9,0,0,1,4.92-1,11.55,11.55,0,0,1,4.9,1A8,8,0,0,1,376.38,38,7,7,0,0,1,377.61,42Z"/><path class="cls-2" d="M390.55,61.31a9.47,9.47,0,0,1-5-1.29,8.45,8.45,0,0,1-3.24-3.58,12.75,12.75,0,0,1,0-10.54,8.71,8.71,0,0,1,3.25-3.57,9.33,9.33,0,0,1,5-1.29,9.72,9.72,0,0,1,4.25.88,7.37,7.37,0,0,1,2.94,2.46A7.28,7.28,0,0,1,399,48.1h-4.42a4.32,4.32,0,0,0-1.28-2.38,3.75,3.75,0,0,0-2.68-.95,4.15,4.15,0,0,0-3.44,1.68,7.44,7.44,0,0,0-1.31,4.66,7.61,7.61,0,0,0,1.3,4.72,4.1,4.1,0,0,0,3.45,1.71,3.85,3.85,0,0,0,4-3.32H399a7.57,7.57,0,0,1-1.23,3.68,7.29,7.29,0,0,1-2.89,2.51A9.61,9.61,0,0,1,390.55,61.31Z"/><path class="cls-2" d="M411.33,61.31a9.52,9.52,0,0,1-5-1.26,8.51,8.51,0,0,1-3.27-3.55,12.76,12.76,0,0,1,0-10.63,8.54,8.54,0,0,1,3.27-3.56,9.43,9.43,0,0,1,5-1.27,9.53,9.53,0,0,1,5,1.27,8.51,8.51,0,0,1,3.26,3.56,11.61,11.61,0,0,1,1.15,5.32,11.6,11.6,0,0,1-1.15,5.31,8.49,8.49,0,0,1-3.26,3.55A9.62,9.62,0,0,1,411.33,61.31Zm0-3.7a4,4,0,0,0,2.61-.86,5,5,0,0,0,1.56-2.32,9.55,9.55,0,0,0,.52-3.25,9.67,9.67,0,0,0-.52-3.27A5.12,5.12,0,0,0,414,45.58a3.92,3.92,0,0,0-2.61-.87,4,4,0,0,0-2.64.87,5.23,5.23,0,0,0-1.58,2.33,9.67,9.67,0,0,0-.52,3.27,9.55,9.55,0,0,0,.52,3.25,5.14,5.14,0,0,0,1.58,2.32A4,4,0,0,0,411.36,57.61Z"/><path class="cls-2" d="M437.17,52.67V41.29h4.63V60.93h-4.49V57.44h-.21a5.84,5.84,0,0,1-2.18,2.7,6.35,6.35,0,0,1-3.72,1,6.2,6.2,0,0,1-4.72-1.93,7.6,7.6,0,0,1-1.83-5.46V41.29h4.63V53.08a4.18,4.18,0,0,0,1,3,3.53,3.53,0,0,0,2.69,1.1,4.28,4.28,0,0,0,2-.5,4,4,0,0,0,1.58-1.49A4.64,4.64,0,0,0,437.17,52.67Z"/><path class="cls-2" d="M456.36,41.29v3.58h-3.88V55a2.16,2.16,0,0,0,.62,1.83,2.49,2.49,0,0,0,1.48.44,4.92,4.92,0,0,0,.8-.06c.24-.05.43-.08.56-.12l.78,3.62a8.94,8.94,0,0,1-1.06.28,9.16,9.16,0,0,1-1.67.18,6.63,6.63,0,0,1-4.38-1.28,4.83,4.83,0,0,1-1.75-4.13V44.87h-2.79V41.29h2.79v-4.7h4.62v4.7Z"/></g></g></svg>